<?xml version="1.0" encoding="UTF-8"?>
<svg id="Layer_2" data-name="Layer 2" xmlns="http://www.w3.org/2000/svg" xmlns:xlink="http://www.w3.org/1999/xlink" viewBox="0 0 1919.99 1080">
  <defs>
    <style>
      .cls-1, .cls-2 {
        fill: none;
      }

      .cls-2 {
        stroke: #154b91;
        stroke-miterlimit: 10;
        stroke-width: 3px;
      }

      .cls-3 {
        clip-path: url(#clippath);
      }
    </style>
    <clipPath id="clippath">
      <rect class="cls-1" width="1919.99" height="1080"/>
    </clipPath>
  </defs>
  <g id="Layer_1-2" data-name="Layer 1">
    <g id="Layer_1-3" data-name="Layer 1">
      <g class="cls-3">
        <g>
          <path class="cls-2" d="M1814.42,590.74l209.17,66.15c30.09,9.52,59.76-17.73,53.4-49.05l-44.21-217.64-44.21-217.64c-6.36-31.32-43.98-43.21-67.72-21.41l-164.95,151.49-164.96,151.49c-23.73,21.8-15.78,60.94,14.31,70.46l209.17,66.15h0Z"/>
          <path class="cls-2" d="M676.37,868.77l-547.9,297.51c-28.19,15.31-30.07,55.43-3.38,72.22l518.72,326.25,518.71,326.25c26.69,16.79,61.93-2.35,63.44-34.45l29.18-623.76,29.19-623.76c1.5-32.1-31.86-53.08-60.06-37.77l-547.9,297.51h0Z"/>
          <path class="cls-2" d="M1524.06,1170.43l14.03,418.11c1.07,32.01,35.97,50.16,62.89,32.71l349.73-226.67,349.73-226.67c26.92-17.45,25.74-57.45-2.13-72.09l-364.04-191.26-363.45-190.95c-28-14.71-61.84,7.22-60.77,39.38l14,417.44h0Z"/>
        </g>
      </g>
    </g>
  </g>
</svg>